<svg class="hidden" xmlns="http://www.w3.org/2000/svg">
        <symbol viewBox="0 0 576 512" id="homeIcon">
                <path d="M575.8 255.5c0 18-15 32.1-32 
                32.1h-32l.7 160.2c0 2.7-.2 5.4-.5 8.1V472c0 22.1-17.9 40-40 
                40H456c-1.1 0-2.2 0-3.3-.1c-1.4 .1-2.8 .1-4.2 
                .1H416 392c-22.1 0-40-17.9-40-40V448 384c0-17.7-14.3-32-32-32H256c-17.7 
                0-32 14.3-32 32v64 24c0 22.1-17.9 40-40 40H160 
                128.1c-1.5 0-3-.1-4.5-.2c-1.2 .1-2.4 .2-3.6 
                .2H104c-22.1 0-40-17.9-40-40V360c0-.9 0-1.9 
                .1-2.8V287.6H32c-18 0-32-14-32-32.1c0-9 3-17 
                10-24L266.4 8c7-7 15-8 22-8s15 
                2 21 7L564.8 231.5c8 7 12 15 11 24z" />
        </symbol>
        <symbol viewBox="0 0 512 512" id="contentIcon">
                <path d="M220.6 121.2L271.1 96 448 96v96H333.2c-21.9-15.1-48.5-24-77.2-24s-55.2 8.9-77.2 24H64V128H192c9.9 
0 19.7-2.3 28.6-6.8zM0 128V416c0 35.3 28.7 64 64 64H448c35.3 
0 64-28.7 64-64V96c0-35.3-28.7-64-64-64H271.1c-9.9 0-19.7 
2.3-28.6 6.8L192 64H160V48c0-8.8-7.2-16-16-16H80c-8.8 0-16 
7.2-16 16l0 16C28.7 64 0 92.7 0 128zM168 304a88 88 0 1 1 176 0 88 88 0 1 1 -176 0" />
        </symbol>
        <symbol viewBox="0 0 576 512" id="subscriptionIcon">
                <path d="M64 64C28.7 64 0 92.7 0 128V384c0 35.3 28.7 64 64 64H512c35.3 0 64-28.7 64-64V128c0-35.3-28.7-64-64-64H64zm64 320H64V320c35.3 0 64 28.7 64 64zM64 192V128h64c0 35.3-28.7 64-64 64zM448 384c0-35.3 28.7-64 64-64v64H448zm64-192c-35.3 0-64-28.7-64-64h64v64zM288 160a96 96 0 1 1 0 192 96 96 0 1 1 0-192z" />
        </symbol>
        <symbol viewBox="0 0 512 512" id="galleryIcon">
                <path d="M448 80c8.8 0 16 7.2 16 16V415.8l-5-6.5-136-176c-4.5-5.9-11.6-9.3-19-9.3s-14.4 3.4-19 9.3L202 340.7l-30.5-42.7C167 291.7 159.8 288 152 288s-15 3.7-19.5 10.1l-80 112L48 416.3l0-.3V96c0-8.8 7.2-16 16-16H448zM64 32C28.7 32 0 60.7 0 96V416c0 35.3 28.7 64 64 64H448c35.3 0 64-28.7 64-64V96c0-35.3-28.7-64-64-64H64zm80 192a48 48 0 1 0 0-96 48 48 0 1 0 0 96z" />
        </symbol>
        <symbol viewBox="0 0 512 512" id="optionsIcon">
                <path d="M3.9 54.9C10.5 40.9 24.5 32 40 32H472c15.5 0 29.5 8.9 36.1 22.9s4.6 30.5-5.2 42.5L320 320.9V448c0 12.1-6.8 23.2-17.7 28.6s-23.8 4.3-33.5-3l-64-48c-8.1-6-12.8-15.5-12.8-25.6V320.9L9 97.3C-.7 85.4-2.8 68.8 3.9 54.9z" />
        </symbol>

        </svg>